<svg width="60" height="60" viewBox="0 0 60 60" fill="none" xmlns="http://www.w3.org/2000/svg">
<g clip-path="url(#clip0_60_166)">
<path d="M1.25894 27.3516C-0.41517 28.8164 -0.41517 31.1953 1.25894 32.6602L22.6875 51.4102C24.3616 52.875 27.0804 52.875 28.7545 51.4102C30.4286 49.9453 30.4286 47.5664 28.7545 46.1016L14.625 33.75H55.7143C58.0848 33.75 60 32.0742 60 30C60 27.9258 58.0848 26.25 55.7143 26.25H14.6384L28.7411 13.8984C30.4152 12.4336 30.4152 10.0547 28.7411 8.58984C27.067 7.125 24.3482 7.125 22.6741 8.58984L1.24554 27.3398L1.25894 27.3516Z" fill="black"/>
</g>
<defs>
<clipPath id="clip0_60_166">
<rect width="60" height="60" fill="white"/>
</clipPath>
</defs>
</svg>
