<svg width="51" height="44" viewBox="0 0 51 44" fill="none" xmlns="http://www.w3.org/2000/svg">
<g clip-path="url(#clip0_93_2)">
<path d="M1.07011 20.0578C-0.352879 21.132 -0.352879 22.8766 1.07011 23.9508L19.2844 37.7008C20.7074 38.775 23.0183 38.775 24.4413 37.7008C25.8643 36.6266 25.8643 34.882 24.4413 33.8078L12.4313 24.75H47.3572C49.3721 24.75 51 23.5211 51 22C51 20.4789 49.3721 19.25 47.3572 19.25H12.4427L24.4299 10.1922C25.8529 9.11797 25.8529 7.37344 24.4299 6.29922C23.0069 5.22501 20.696 5.22501 19.273 6.29922L1.05873 20.0492L1.07011 20.0578Z" fill="black"/>
</g>
<defs>
<clipPath id="clip0_93_2">
<rect width="51" height="44" fill="white"/>
</clipPath>
</defs>
</svg>
