<svg width="20" height="30" viewBox="0 0 20 30" fill="none" xmlns="http://www.w3.org/2000/svg">
<g clip-path="url(#clip0_45_2)">
<path d="M-3.09258e-05 3.75C-3.09258e-05 2.71289 0.893719 1.875 1.99997 1.875H5.99997H6.99997H18C19.1062 1.875 20 2.71289 20 3.75C20 4.78711 19.1062 5.625 18 5.625H14.4875C15.0875 6.46875 15.5312 7.41797 15.7812 8.4375H18C19.1062 8.4375 20 9.27539 20 10.3125C20 11.3496 19.1062 12.1875 18 12.1875H15.775C14.95 15.6035 11.9062 18.2344 8.13747 18.6855L17.1625 24.7266C18.0625 25.3301 18.2687 26.502 17.625 27.3398C16.9812 28.1777 15.7312 28.377 14.8375 27.7734L0.837469 18.3984C0.131219 17.9297 -0.168781 17.0801 0.0937191 16.3008C0.356219 15.5215 1.13122 15 1.99997 15H6.99997C9.04997 15 10.8125 13.8457 11.5812 12.1875H1.99997C0.893719 12.1875 -3.09258e-05 11.3496 -3.09258e-05 10.3125C-3.09258e-05 9.27539 0.893719 8.4375 1.99997 8.4375H11.5812C10.8125 6.7793 9.04997 5.625 6.99997 5.625H5.99997H1.99997C0.893719 5.625 -3.09258e-05 4.78711 -3.09258e-05 3.75Z" fill="black"/>
</g>
<defs>
<clipPath id="clip0_45_2">
<rect width="20" height="30" fill="white"/>
</clipPath>
</defs>
</svg>
