<svg width="70" height="70" viewBox="0 0 70 70" fill="none" xmlns="http://www.w3.org/2000/svg">
<g clip-path="url(#clip0_11_50)">
<path d="M40.4276 9.08821L20.4777 -0.430137C18.7683 -1.23744 16.8747 -1.12025 15.2471 -0.07857L10.5488 2.90324C9.41265 3.63241 9.33076 5.65066 10.3953 6.52307L25.4319 18.8279L15.3495 25.3775L9.39217 22.005C8.50164 21.4972 7.46781 21.5233 6.59775 22.0832L3.30177 24.1795C2.34983 24.7915 2.09393 26.3671 2.78997 27.3957L10.2725 38.5026C10.8969 39.4271 11.8079 39.961 12.7598 39.961H26.8547C27.3665 39.961 27.8681 39.8047 28.3185 39.5183L56.2524 21.7576C61.0122 18.7237 64.6971 13.5153 66.5703 7.17412C67.5427 3.89283 65.6286 0.377165 62.8649 0.377165H56.9894C54.9218 0.377165 52.8746 1.00217 51.0321 2.2001L40.4276 9.08821ZM1.42859 56.6278C1.42859 58.9326 2.89233 60.7946 4.7041 60.7946H34.1837H63.6633C65.4751 60.7946 66.9388 58.9326 66.9388 56.6278C66.9388 54.3231 65.4751 52.4611 63.6633 52.4611H34.1837H4.7041C2.89233 52.4611 1.42859 54.3231 1.42859 56.6278Z" fill="black"/>
</g>
<defs>
<clipPath id="clip0_11_50">
<rect width="70" height="70" fill="white"/>
</clipPath>
</defs>
</svg>
