<svg width="174" height="59" viewBox="0 0 174 59" fill="none" xmlns="http://www.w3.org/2000/svg">
<g filter="url(#filter0_d_82_397)">
<path d="M4 25.5C4 11.4167 15.4167 0 29.5 0H144.5C158.583 0 170 11.4167 170 25.5C170 39.5833 158.583 51 144.5 51H29.5C15.4167 51 4 39.5833 4 25.5Z" fill="#008CFF"/>
<path d="M5 25.5C5 11.969 15.969 1 29.5 1H144.5C158.031 1 169 11.969 169 25.5C169 39.031 158.031 50 144.5 50H29.5C15.969 50 5 39.031 5 25.5Z" stroke="white" stroke-width="2"/>
</g>
<defs>
<filter id="filter0_d_82_397" x="0" y="0" width="174" height="59" filterUnits="userSpaceOnUse" color-interpolation-filters="sRGB">
<feFlood flood-opacity="0" result="BackgroundImageFix"/>
<feColorMatrix in="SourceAlpha" type="matrix" values="0 0 0 0 0 0 0 0 0 0 0 0 0 0 0 0 0 0 127 0" result="hardAlpha"/>
<feOffset dy="4"/>
<feGaussianBlur stdDeviation="2"/>
<feComposite in2="hardAlpha" operator="out"/>
<feColorMatrix type="matrix" values="0 0 0 0 0 0 0 0 0 0 0 0 0 0 0 0 0 0 0.25 0"/>
<feBlend mode="normal" in2="BackgroundImageFix" result="effect1_dropShadow_82_397"/>
<feBlend mode="normal" in="SourceGraphic" in2="effect1_dropShadow_82_397" result="shape"/>
</filter>
</defs>
</svg>
