<svg width="70" height="70" viewBox="0 0 70 70" fill="none" xmlns="http://www.w3.org/2000/svg">
<g clip-path="url(#clip0_11_71)">
<path d="M26.25 0C23.8301 0 21.875 1.95508 21.875 4.375V8.75C21.875 8.76367 21.875 8.76367 21.875 8.77734C16.5977 9.07812 11.9902 12.5098 10.2266 17.541L5.41406 31.2812C2.24219 32.5938 0 35.7246 0 39.375V59.0625V65.625C0 68.0449 1.95508 70 4.375 70H8.75C11.1699 70 13.125 68.0449 13.125 65.625V59.0625H56.875V65.625C56.875 68.0449 58.8301 70 61.25 70H65.625C68.0449 70 70 68.0449 70 65.625V59.0625V39.375C70 35.7246 67.7578 32.5938 64.5859 31.2812L59.7734 17.541C58.0098 12.5098 53.4023 9.06445 48.125 8.77734C48.125 8.76367 48.125 8.76367 48.125 8.75V4.375C48.125 1.95508 46.1699 0 43.75 0H26.25ZM22.6133 17.5H47.3867C49.2461 17.5 50.9004 18.6758 51.5156 20.4258L55.084 30.625H14.916L18.4844 20.4258C19.0996 18.6758 20.7539 17.5 22.6133 17.5ZM13.125 39.375C14.2853 39.375 15.3981 39.8359 16.2186 40.6564C17.0391 41.4769 17.5 42.5897 17.5 43.75C17.5 44.9103 17.0391 46.0231 16.2186 46.8436C15.3981 47.6641 14.2853 48.125 13.125 48.125C11.9647 48.125 10.8519 47.6641 10.0314 46.8436C9.21094 46.0231 8.75 44.9103 8.75 43.75C8.75 42.5897 9.21094 41.4769 10.0314 40.6564C10.8519 39.8359 11.9647 39.375 13.125 39.375ZM52.5 43.75C52.5 42.5897 52.9609 41.4769 53.7814 40.6564C54.6019 39.8359 55.7147 39.375 56.875 39.375C58.0353 39.375 59.1481 39.8359 59.9686 40.6564C60.7891 41.4769 61.25 42.5897 61.25 43.75C61.25 44.9103 60.7891 46.0231 59.9686 46.8436C59.1481 47.6641 58.0353 48.125 56.875 48.125C55.7147 48.125 54.6019 47.6641 53.7814 46.8436C52.9609 46.0231 52.5 44.9103 52.5 43.75Z" fill="black"/>
</g>
<defs>
<clipPath id="clip0_11_71">
<rect width="70" height="70" fill="white"/>
</clipPath>
</defs>
</svg>
