<svg width="70" height="70" viewBox="0 0 70 70" fill="none" xmlns="http://www.w3.org/2000/svg">
<g clip-path="url(#clip0_11_69)">
<path d="M42.0851 37.1602L34.7812 34.166L26.0069 61.25H3.88889C1.73785 61.25 0 63.2051 0 65.625C0 68.0449 1.73785 70 3.88889 70H66.1111C68.2622 70 70 68.0449 70 65.625C70 63.2051 68.2622 61.25 66.1111 61.25H34.283L42.0729 37.1602H42.0851ZM56.8021 37.1328L56.401 38.377L64.6285 41.7402C66.8281 42.6426 69.2465 41.166 69.441 38.541C70.2309 27.8086 66.5365 17.2813 59.6215 10.0352C59.8646 11.1289 60.0104 12.2637 60.0347 13.4258L60.059 14.2461C60.2778 22.0391 59.1719 29.8047 56.8021 37.1328ZM56.1458 13.5488C56.0122 8.8457 53.4115 4.68945 49.5347 2.9668C49.4253 2.91211 49.3038 2.87109 49.1944 2.81641C45.184 1.2168 40.7118 2.48828 37.8802 6.07031L37.3941 6.68555C33.1042 12.0723 29.7743 18.3477 27.5625 25.1563L27.1615 26.4004L52.7431 36.8731L53.1441 35.6289C55.3437 28.8203 56.3767 21.6152 56.1701 14.3691L56.1458 13.5488ZM13.0278 15.4355C11.6788 17.582 12.6875 20.4668 14.8872 21.3691L23.5156 24.8965L23.9167 23.6523C26.2865 16.3242 29.8837 9.57031 34.5017 3.75977L34.9878 3.14453C35.7413 2.20117 36.5799 1.36719 37.4792 0.65625C27.8056 0.998047 18.6788 6.42578 13.0278 15.4219V15.4355Z" fill="black"/>
</g>
<defs>
<clipPath id="clip0_11_69">
<rect width="70" height="70" fill="white"/>
</clipPath>
</defs>
</svg>
