<svg width="45" height="45" viewBox="0 0 45 45" fill="none" xmlns="http://www.w3.org/2000/svg">
<g clip-path="url(#clip0_78_18)">
<path d="M22.5 22.5C25.9099 22.5 29.1802 21.3147 31.5914 19.205C34.0026 17.0952 35.3571 14.2337 35.3571 11.25C35.3571 8.26631 34.0026 5.40483 31.5914 3.29505C29.1802 1.18526 25.9099 0 22.5 0C19.0901 0 15.8198 1.18526 13.4086 3.29505C10.9974 5.40483 9.64286 8.26631 9.64286 11.25C9.64286 14.2337 10.9974 17.0952 13.4086 19.205C15.8198 21.3147 19.0901 22.5 22.5 22.5ZM17.9096 26.7188C8.01562 26.7188 0 33.7324 0 42.3896C0 43.8311 1.33594 45 2.98326 45H42.0167C43.6641 45 45 43.8311 45 42.3896C45 33.7324 36.9844 26.7188 27.0904 26.7188H17.9096Z" fill="black"/>
</g>
<defs>
<clipPath id="clip0_78_18">
<rect width="45" height="45" fill="white"/>
</clipPath>
</defs>
</svg>
