<svg width="70" height="70" viewBox="0 0 70 70" fill="none" xmlns="http://www.w3.org/2000/svg">
<path d="M65.625 8.25H65.125V8.75V61.25V61.75H65.625C67.7688 61.75 69.5 63.4812 69.5 65.625C69.5 67.7688 67.7688 69.5 65.625 69.5H42.0625V63.4375C42.0625 59.5383 38.8992 56.375 35 56.375C31.1008 56.375 27.9375 59.5383 27.9375 63.4375V69.5H4.375C2.23122 69.5 0.5 67.7688 0.5 65.625C0.5 63.4812 2.23122 61.75 4.375 61.75H4.875V61.25V8.75V8.25H4.375C2.23122 8.25 0.5 6.51878 0.5 4.375C0.5 2.23122 2.23122 0.5 4.375 0.5H65.625C67.7688 0.5 69.5 2.23122 69.5 4.375C69.5 6.51878 67.7688 8.25 65.625 8.25ZM12.625 15.3125V19.6875C12.625 21.1668 13.8332 22.375 15.3125 22.375H19.6875C21.1668 22.375 22.375 21.1668 22.375 19.6875V15.3125C22.375 13.8332 21.1668 12.625 19.6875 12.625H15.3125C13.8332 12.625 12.625 13.8332 12.625 15.3125ZM32.8125 12.625C31.3332 12.625 30.125 13.8332 30.125 15.3125V19.6875C30.125 21.1668 31.3332 22.375 32.8125 22.375H37.1875C38.6668 22.375 39.875 21.1668 39.875 19.6875V15.3125C39.875 13.8332 38.6668 12.625 37.1875 12.625H32.8125ZM47.625 15.3125V19.6875C47.625 21.1668 48.8332 22.375 50.3125 22.375H54.6875C56.1668 22.375 57.375 21.1668 57.375 19.6875V15.3125C57.375 13.8332 56.1668 12.625 54.6875 12.625H50.3125C48.8332 12.625 47.625 13.8332 47.625 15.3125ZM15.3125 25.75C13.8332 25.75 12.625 26.9582 12.625 28.4375V32.8125C12.625 34.2918 13.8332 35.5 15.3125 35.5H19.6875C21.1668 35.5 22.375 34.2918 22.375 32.8125V28.4375C22.375 26.9582 21.1668 25.75 19.6875 25.75H15.3125ZM30.125 28.4375V32.8125C30.125 34.2918 31.3332 35.5 32.8125 35.5H37.1875C38.6668 35.5 39.875 34.2918 39.875 32.8125V28.4375C39.875 26.9582 38.6668 25.75 37.1875 25.75H32.8125C31.3332 25.75 30.125 26.9582 30.125 28.4375ZM50.3125 25.75C48.8332 25.75 47.625 26.9582 47.625 28.4375V32.8125C47.625 34.2918 48.8332 35.5 50.3125 35.5H54.6875C56.1668 35.5 57.375 34.2918 57.375 32.8125V28.4375C57.375 26.9582 56.1668 25.75 54.6875 25.75H50.3125ZM44.8438 53C46.8934 53 48.7533 51.2884 48.1993 49.1224L48.1992 49.1222C46.6949 43.2328 41.3593 38.875 35 38.875C28.6419 38.875 23.2917 43.2317 21.8007 49.1224C21.2463 51.2756 23.1215 53 25.1562 53H44.8438Z" fill="white"/>
<path d="M65.625 8.25H65.125V8.75V61.25V61.75H65.625C67.7688 61.75 69.5 63.4812 69.5 65.625C69.5 67.7688 67.7688 69.5 65.625 69.5H42.0625V63.4375C42.0625 59.5383 38.8992 56.375 35 56.375C31.1008 56.375 27.9375 59.5383 27.9375 63.4375V69.5H4.375C2.23122 69.5 0.5 67.7688 0.5 65.625C0.5 63.4812 2.23122 61.75 4.375 61.75H4.875V61.25V8.75V8.25H4.375C2.23122 8.25 0.5 6.51878 0.5 4.375C0.5 2.23122 2.23122 0.5 4.375 0.5H65.625C67.7688 0.5 69.5 2.23122 69.5 4.375C69.5 6.51878 67.7688 8.25 65.625 8.25ZM12.625 15.3125V19.6875C12.625 21.1668 13.8332 22.375 15.3125 22.375H19.6875C21.1668 22.375 22.375 21.1668 22.375 19.6875V15.3125C22.375 13.8332 21.1668 12.625 19.6875 12.625H15.3125C13.8332 12.625 12.625 13.8332 12.625 15.3125ZM32.8125 12.625C31.3332 12.625 30.125 13.8332 30.125 15.3125V19.6875C30.125 21.1668 31.3332 22.375 32.8125 22.375H37.1875C38.6668 22.375 39.875 21.1668 39.875 19.6875V15.3125C39.875 13.8332 38.6668 12.625 37.1875 12.625H32.8125ZM47.625 15.3125V19.6875C47.625 21.1668 48.8332 22.375 50.3125 22.375H54.6875C56.1668 22.375 57.375 21.1668 57.375 19.6875V15.3125C57.375 13.8332 56.1668 12.625 54.6875 12.625H50.3125C48.8332 12.625 47.625 13.8332 47.625 15.3125ZM15.3125 25.75C13.8332 25.75 12.625 26.9582 12.625 28.4375V32.8125C12.625 34.2918 13.8332 35.5 15.3125 35.5H19.6875C21.1668 35.5 22.375 34.2918 22.375 32.8125V28.4375C22.375 26.9582 21.1668 25.75 19.6875 25.75H15.3125ZM30.125 28.4375V32.8125C30.125 34.2918 31.3332 35.5 32.8125 35.5H37.1875C38.6668 35.5 39.875 34.2918 39.875 32.8125V28.4375C39.875 26.9582 38.6668 25.75 37.1875 25.75H32.8125C31.3332 25.75 30.125 26.9582 30.125 28.4375ZM50.3125 25.75C48.8332 25.75 47.625 26.9582 47.625 28.4375V32.8125C47.625 34.2918 48.8332 35.5 50.3125 35.5H54.6875C56.1668 35.5 57.375 34.2918 57.375 32.8125V28.4375C57.375 26.9582 56.1668 25.75 54.6875 25.75H50.3125ZM44.8438 53C46.8934 53 48.7533 51.2884 48.1993 49.1224L48.1992 49.1222C46.6949 43.2328 41.3593 38.875 35 38.875C28.6419 38.875 23.2917 43.2317 21.8007 49.1224C21.2463 51.2756 23.1215 53 25.1562 53H44.8438Z" stroke="black"/>
<path d="M65.625 8.25H65.125V8.75V61.25V61.75H65.625C67.7688 61.75 69.5 63.4812 69.5 65.625C69.5 67.7688 67.7688 69.5 65.625 69.5H42.0625V63.4375C42.0625 59.5383 38.8992 56.375 35 56.375C31.1008 56.375 27.9375 59.5383 27.9375 63.4375V69.5H4.375C2.23122 69.5 0.5 67.7688 0.5 65.625C0.5 63.4812 2.23122 61.75 4.375 61.75H4.875V61.25V8.75V8.25H4.375C2.23122 8.25 0.5 6.51878 0.5 4.375C0.5 2.23122 2.23122 0.5 4.375 0.5H65.625C67.7688 0.5 69.5 2.23122 69.5 4.375C69.5 6.51878 67.7688 8.25 65.625 8.25ZM12.625 15.3125V19.6875C12.625 21.1668 13.8332 22.375 15.3125 22.375H19.6875C21.1668 22.375 22.375 21.1668 22.375 19.6875V15.3125C22.375 13.8332 21.1668 12.625 19.6875 12.625H15.3125C13.8332 12.625 12.625 13.8332 12.625 15.3125ZM32.8125 12.625C31.3332 12.625 30.125 13.8332 30.125 15.3125V19.6875C30.125 21.1668 31.3332 22.375 32.8125 22.375H37.1875C38.6668 22.375 39.875 21.1668 39.875 19.6875V15.3125C39.875 13.8332 38.6668 12.625 37.1875 12.625H32.8125ZM47.625 15.3125V19.6875C47.625 21.1668 48.8332 22.375 50.3125 22.375H54.6875C56.1668 22.375 57.375 21.1668 57.375 19.6875V15.3125C57.375 13.8332 56.1668 12.625 54.6875 12.625H50.3125C48.8332 12.625 47.625 13.8332 47.625 15.3125ZM15.3125 25.75C13.8332 25.75 12.625 26.9582 12.625 28.4375V32.8125C12.625 34.2918 13.8332 35.5 15.3125 35.5H19.6875C21.1668 35.5 22.375 34.2918 22.375 32.8125V28.4375C22.375 26.9582 21.1668 25.75 19.6875 25.75H15.3125ZM30.125 28.4375V32.8125C30.125 34.2918 31.3332 35.5 32.8125 35.5H37.1875C38.6668 35.5 39.875 34.2918 39.875 32.8125V28.4375C39.875 26.9582 38.6668 25.75 37.1875 25.75H32.8125C31.3332 25.75 30.125 26.9582 30.125 28.4375ZM50.3125 25.75C48.8332 25.75 47.625 26.9582 47.625 28.4375V32.8125C47.625 34.2918 48.8332 35.5 50.3125 35.5H54.6875C56.1668 35.5 57.375 34.2918 57.375 32.8125V28.4375C57.375 26.9582 56.1668 25.75 54.6875 25.75H50.3125ZM44.8438 53C46.8934 53 48.7533 51.2884 48.1993 49.1224L48.1992 49.1222C46.6949 43.2328 41.3593 38.875 35 38.875C28.6419 38.875 23.2917 43.2317 21.8007 49.1224C21.2463 51.2756 23.1215 53 25.1562 53H44.8438Z" stroke="black" stroke-opacity="0.2"/>
</svg>
