<svg width="39" height="38" viewBox="0 0 39 38" fill="none" xmlns="http://www.w3.org/2000/svg">
<g style="mix-blend-mode:hard-light">
<path d="M38.1817 11.1829C39.2699 10.2552 39.2699 8.74854 38.1817 7.8208L29.8246 0.695801C28.7364 -0.231934 26.9692 -0.231934 25.881 0.695801C24.7929 1.62354 24.7929 3.13018 25.881 4.05791L29.485 7.13057H2.78571C1.24487 7.13057 0 8.19189 0 9.50557C0 10.8192 1.24487 11.8806 2.78571 11.8806H29.485L25.881 14.9532C24.7929 15.881 24.7929 17.3876 25.881 18.3153C26.9692 19.2431 28.7364 19.2431 29.8246 18.3153L38.1817 11.1903V11.1829ZM9.16674 37.3079C10.2549 38.2356 12.0221 38.2356 13.1103 37.3079C14.1984 36.3802 14.1984 34.8735 13.1103 33.9458L9.51496 30.8806H36.2143C37.7551 30.8806 39 29.8192 39 28.5056C39 27.1919 37.7551 26.1306 36.2143 26.1306H9.51496L13.119 23.0579C14.2071 22.1302 14.2071 20.6235 13.119 19.6958C12.0308 18.7681 10.2636 18.7681 9.17545 19.6958L0.818304 26.8208C-0.269866 27.7485 -0.269866 29.2552 0.818304 30.1829L9.17545 37.3079H9.16674Z" fill="white"/>
</g>
</svg>
