<svg width="18" height="25" viewBox="0 0 18 25" fill="none" xmlns="http://www.w3.org/2000/svg">
<path d="M0.000191893 1.75C0.000191893 0.782031 0.804567 0 1.80019 0H5.40019H6.30019H16.2002C17.1958 0 18.0002 0.782031 18.0002 1.75C18.0002 2.71797 17.1958 3.5 16.2002 3.5H13.0389C13.5789 4.2875 13.9783 5.17344 14.2033 6.125H16.2002C17.1958 6.125 18.0002 6.90703 18.0002 7.875C18.0002 8.84297 17.1958 9.625 16.2002 9.625H14.1977C13.4552 12.8133 10.7158 15.2687 7.32394 15.6898L15.4464 21.3281C16.2564 21.8914 16.4421 22.9852 15.8627 23.7672C15.2833 24.5492 14.1583 24.7352 13.3539 24.1719L0.753942 15.4219C0.118317 14.9844 -0.151683 14.1914 0.0845669 13.4641C0.320817 12.7367 1.01832 12.25 1.80019 12.25H6.30019C8.14519 12.25 9.73144 11.1727 10.4233 9.625H1.80019C0.804567 9.625 0.000191893 8.84297 0.000191893 7.875C0.000191893 6.90703 0.804567 6.125 1.80019 6.125H10.4233C9.73144 4.57734 8.14519 3.5 6.30019 3.5H5.40019H1.80019C0.804567 3.5 0.000191893 2.71797 0.000191893 1.75Z" fill="black"/>
</svg>
